<svg xmlns="http://www.w3.org/2000/svg" width="512" height="512" viewBox="0 0 512 512">
  <g fill="none" fill-rule="evenodd">
    <circle cx="256" cy="256" r="256" fill="#BE1A1A"/>
    <path fill="#FFFFFF" fill-rule="nonzero" d="M165.397098,199.333333 L154.740815,199.333333 C147.970133,199.333333 146.002229,203.553834 150.201938,208.588159 L175.801046,239.27451 C178.469641,242.473434 182.905265,242.342805 185.464899,239.27451 L211.063991,208.588159 C215.327933,203.476865 213.297003,199.333333 206.525115,199.333333 L195.919665,199.333333 L195.921008,184.41073 C195.927921,146.624127 226.72779,115.92023 264.59606,115.908111 C302.474631,115.895977 333.249991,146.649966 333.247702,184.440121 L333.233357,420.37732 C333.233098,424.587135 336.649372,428 340.863671,428 L356.121048,428 C360.335148,428 363.751362,424.587409 363.751362,420.377778 L363.751346,184.044101 C363.751346,129.377157 319.279054,85 264.574222,85 C209.794277,85 165.397098,129.367218 165.397098,184.117838 L165.397098,199.333333 Z" transform="matrix(-1 0 0 1 511.751 0)"/>
  </g>
</svg>
